<svg width="28" height="28" viewBox="0 0 28 28" fill="none" xmlns="http://www.w3.org/2000/svg">
<rect width="28" height="28" rx="14" fill="#FE506B"/>
<path d="M20 14.998H15V19.998C15 20.2632 14.8946 20.5176 14.7071 20.7051C14.5196 20.8926 14.2652 20.998 14 20.998C13.7348 20.998 13.4804 20.8926 13.2929 20.7051C13.1054 20.5176 13 20.2632 13 19.998V14.998H8C7.73478 14.998 7.48043 14.8926 7.29289 14.7051C7.10536 14.5176 7 14.2632 7 13.998C7 13.7328 7.10536 13.4784 7.29289 13.2909C7.48043 13.1033 7.73478 12.998 8 12.998H13V7.99799C13 7.73277 13.1054 7.47842 13.2929 7.29088C13.4804 7.10334 13.7348 6.99799 14 6.99799C14.2652 6.99799 14.5196 7.10334 14.7071 7.29088C14.8946 7.47842 15 7.73277 15 7.99799V12.998H20C20.2652 12.998 20.5196 13.1033 20.7071 13.2909C20.8946 13.4784 21 13.7328 21 13.998C21 14.2632 20.8946 14.5176 20.7071 14.7051C20.5196 14.8926 20.2652 14.998 20 14.998Z" fill="white"/>
</svg>
