<svg width="52" height="52" viewBox="0 0 52 52" fill="none" xmlns="http://www.w3.org/2000/svg">
<rect width="52" height="52" rx="26" fill="white"/>
<path fill-rule="evenodd" clip-rule="evenodd" d="M26.6918 39.1343L26.679 39.1367L26.5962 39.1775L26.5728 39.1822L26.5565 39.1775L26.4737 39.1367C26.4612 39.1328 26.4519 39.1347 26.4457 39.1425L26.441 39.1542L26.4212 39.6535L26.427 39.6768L26.4387 39.692L26.56 39.7783L26.5775 39.783L26.5915 39.7783L26.7128 39.692L26.7268 39.6733L26.7315 39.6535L26.7117 39.1553C26.7086 39.1429 26.7019 39.1359 26.6918 39.1343ZM27.001 39.0025L26.9858 39.0048L26.77 39.1133L26.7583 39.125L26.7548 39.1378L26.7758 39.6395L26.7817 39.6535L26.791 39.6617L27.0255 39.7702C27.0403 39.7741 27.0516 39.771 27.0593 39.7608L27.064 39.7445L27.0243 39.0282C27.0204 39.0142 27.0127 39.0056 27.001 39.0025ZM26.1668 39.0048C26.1617 39.0017 26.1555 39.0007 26.1497 39.002C26.1438 39.0033 26.1387 39.0068 26.1353 39.0118L26.1283 39.0282L26.0887 39.7445C26.0894 39.7585 26.0961 39.7678 26.1085 39.7725L26.126 39.7702L26.3605 39.6617L26.3722 39.6523L26.3768 39.6395L26.3967 39.1378L26.3932 39.1238L26.3815 39.1122L26.1668 39.0048Z" fill="#FE506B"/>
<path fill-rule="evenodd" clip-rule="evenodd" d="M26 28.4757L32.1868 34.6625C32.5151 34.9908 32.9604 35.1752 33.4247 35.1752C33.8889 35.1752 34.3342 34.9908 34.6625 34.6625C34.9908 34.3342 35.1752 33.889 35.1752 33.4247C35.1752 32.9604 34.9908 32.5151 34.6625 32.1868L28.4733 26L34.6613 19.8132C34.8238 19.6506 34.9527 19.4577 35.0406 19.2453C35.1285 19.0329 35.1737 18.8053 35.1736 18.5755C35.1736 18.3457 35.1283 18.1181 35.0403 17.9058C34.9523 17.6935 34.8233 17.5006 34.6608 17.3381C34.4982 17.1756 34.3052 17.0467 34.0929 16.9588C33.8805 16.8709 33.6529 16.8257 33.4231 16.8258C33.1933 16.8258 32.9657 16.8712 32.7534 16.9592C32.541 17.0472 32.3481 17.1761 32.1857 17.3387L26 23.5255L19.8132 17.3387C19.6518 17.1715 19.4588 17.038 19.2453 16.9462C19.0318 16.8544 18.8022 16.806 18.5699 16.8039C18.3375 16.8018 18.1071 16.8459 17.8919 16.9338C17.6768 17.0217 17.4814 17.1516 17.317 17.3158C17.1526 17.48 17.0226 17.6754 16.9345 17.8904C16.8464 18.1054 16.802 18.3358 16.8039 18.5682C16.8058 18.8006 16.854 19.0302 16.9456 19.2438C17.0372 19.4573 17.1704 19.6505 17.3375 19.812L23.5267 26L17.3387 32.188C17.1716 32.3495 17.0384 32.5427 16.9468 32.7562C16.8551 32.9698 16.807 33.1994 16.8051 33.4318C16.8032 33.6642 16.8476 33.8946 16.9356 34.1096C17.0237 34.3246 17.1538 34.52 17.3182 34.6842C17.4826 34.8484 17.678 34.9783 17.8931 35.0662C18.1082 35.1541 18.3387 35.1982 18.571 35.1961C18.8034 35.194 19.033 35.1456 19.2465 35.0538C19.4599 34.962 19.653 34.8286 19.8143 34.6613L26 28.4757Z" fill="#FE506B"/>
</svg>
