<svg width="45" height="31" viewBox="0 0 45 31" fill="none" xmlns="http://www.w3.org/2000/svg">
<path d="M25.3521 18.9796C25.3521 15.6898 25.8592 12.8639 26.8732 10.502C27.8873 8.05578 29.1972 6.07347 30.8028 4.5551C32.4084 2.95238 34.2254 1.81361 36.2535 1.13878C38.3662 0.379592 40.4366 0 42.4648 0V4.42857C40.2676 4.42857 38.1972 5.18776 36.2535 6.70613C34.3944 8.14014 33.2958 10.1224 32.9577 12.6531C33.2113 12.5687 33.507 12.4844 33.8451 12.4C34.0986 12.3156 34.3944 12.2313 34.7324 12.1469C35.1549 12.0626 35.6197 12.0204 36.1268 12.0204C38.662 12.0204 40.7746 12.9905 42.4648 14.9306C44.1549 16.7864 45 18.9796 45 21.5102C45 24.0408 44.1127 26.2762 42.338 28.2163C40.6479 30.0721 38.3662 31 35.493 31C32.2817 31 29.7887 29.819 28.0141 27.4571C26.2394 25.0109 25.3521 22.185 25.3521 18.9796ZM0 18.9796C0 15.6898 0.507042 12.8639 1.52113 10.502C2.53521 8.05578 3.84507 6.07347 5.4507 4.5551C7.05634 2.95238 8.87324 1.81361 10.9014 1.13878C13.0141 0.379592 15.0845 0 17.1127 0V4.42857C14.9155 4.42857 12.8451 5.18776 10.9014 6.70613C9.04225 8.14014 7.94366 10.1224 7.60563 12.6531C7.85916 12.5687 8.15493 12.4844 8.49296 12.4C8.74648 12.3156 9.04225 12.2313 9.38028 12.1469C9.80282 12.0626 10.2676 12.0204 10.7746 12.0204C13.3099 12.0204 15.4225 12.9905 17.1127 14.9306C18.8028 16.7864 19.6479 18.9796 19.6479 21.5102C19.6479 24.0408 18.7606 26.2762 16.9859 28.2163C15.2958 30.0721 13.0141 31 10.1408 31C6.92958 31 4.43662 29.819 2.66197 27.4571C0.887324 25.0109 0 22.185 0 18.9796Z" fill="url(#paint0_linear_3_2315)"/>
<defs>
<linearGradient id="paint0_linear_3_2315" x1="22.5" y1="0" x2="22.5" y2="31" gradientUnits="userSpaceOnUse">
<stop stop-color="#C2C9D1"/>
<stop offset="1" stop-color="#C2C9D1" stop-opacity="0.14"/>
</linearGradient>
</defs>
</svg>
