<svg width="52" height="52" viewBox="0 0 52 52" fill="none" xmlns="http://www.w3.org/2000/svg">
<rect width="52" height="52" rx="26" fill="white"/>
<path d="M21.6168 20.5633L14.1735 21.6425L14.0417 21.6693C13.8421 21.7223 13.6602 21.8273 13.5144 21.9736C13.3687 22.1199 13.2644 22.3022 13.2122 22.502C13.16 22.7018 13.1618 22.9118 13.2173 23.1107C13.2729 23.3096 13.3802 23.4902 13.5283 23.634L18.9207 28.8828L17.649 36.297L17.6338 36.4253C17.6216 36.6317 17.6645 36.8377 17.758 37.0221C17.8516 37.2065 17.9924 37.3627 18.1662 37.4748C18.34 37.5868 18.5404 37.6507 18.747 37.6598C18.9536 37.6689 19.1589 37.623 19.3418 37.5267L25.9988 34.0267L32.6407 37.5267L32.7573 37.5803C32.9499 37.6562 33.1592 37.6794 33.3637 37.6477C33.5682 37.616 33.7606 37.5304 33.9212 37.3998C34.0817 37.2692 34.2046 37.0982 34.2773 36.9044C34.35 36.7106 34.3698 36.501 34.3347 36.297L33.0618 28.8828L38.4565 23.6328L38.5475 23.5337C38.6775 23.3736 38.7627 23.1819 38.7945 22.9781C38.8263 22.7743 38.8035 22.5658 38.7284 22.3737C38.6534 22.1816 38.5287 22.0128 38.3672 21.8846C38.2057 21.7564 38.0131 21.6732 37.809 21.6437L30.3657 20.5633L27.0383 13.82C26.9421 13.6246 26.793 13.4601 26.6081 13.3451C26.4231 13.23 26.2096 13.169 25.9918 13.169C25.774 13.169 25.5606 13.23 25.3756 13.3451C25.1907 13.4601 25.0416 13.6246 24.9453 13.82L21.6168 20.5633Z" fill="#672653"/>
</svg>
