<svg width="12" height="13" viewBox="0 0 12 13" fill="none" xmlns="http://www.w3.org/2000/svg">
<path d="M11 7.33165H6.83329V11.4983C6.83329 11.7193 6.74549 11.9313 6.58921 12.0876C6.43293 12.2438 6.22097 12.3316 5.99996 12.3316C5.77895 12.3316 5.56698 12.2438 5.4107 12.0876C5.25442 11.9313 5.16663 11.7193 5.16663 11.4983V7.33165H0.999959C0.778946 7.33165 0.566984 7.24385 0.410704 7.08757C0.254424 6.93129 0.166626 6.71933 0.166626 6.49831C0.166626 6.2773 0.254424 6.06534 0.410704 5.90906C0.566984 5.75278 0.778946 5.66498 0.999959 5.66498H5.16663V1.49831C5.16663 1.2773 5.25442 1.06534 5.4107 0.909055C5.56698 0.752775 5.77895 0.664978 5.99996 0.664978C6.22097 0.664978 6.43293 0.752775 6.58921 0.909055C6.74549 1.06534 6.83329 1.2773 6.83329 1.49831V5.66498H11C11.221 5.66498 11.4329 5.75278 11.5892 5.90906C11.7455 6.06534 11.8333 6.2773 11.8333 6.49831C11.8333 6.71933 11.7455 6.93129 11.5892 7.08757C11.4329 7.24385 11.221 7.33165 11 7.33165Z" fill="#FE506B"/>
</svg>
